<?xml version="1.0" standalone="no"?>
<!DOCTYPE svg PUBLIC "-//W3C//DTD SVG 20010904//EN"
 "http://www.w3.org/TR/2001/REC-SVG-20010904/DTD/svg10.dtd">
<svg version="1.0" xmlns="http://www.w3.org/2000/svg"
 width="512.000000pt" height="512.000000pt" viewBox="0 0 512.000000 512.000000"
 preserveAspectRatio="xMidYMid meet">
<metadata>
Created by potrace 1.14, written by Peter Selinger 2001-2017
</metadata>
<g transform="translate(0.000000,512.000000) scale(0.100000,-0.100000)"
fill="#000000" stroke="none">
<path d="M2057 5014 c-1 -1 -36 -4 -78 -8 -114 -9 -258 -49 -361 -101 -81 -40
-172 -93 -203 -118 -5 -4 -32 -24 -60 -45 -153 -115 -321 -327 -353 -444 -5
-18 -13 -32 -18 -31 -5 1 -40 14 -79 29 -246 93 -559 181 -668 189 -106 7
-179 -82 -147 -179 19 -59 48 -76 185 -107 186 -42 427 -115 545 -165 107 -46
282 -137 274 -142 -17 -11 -138 -162 -190 -237 -271 -385 -414 -849 -408
-1325 1 -128 7 -218 19 -300 9 -59 25 -143 30 -160 3 -10 7 -27 9 -37 37 -181
143 -447 257 -638 184 -310 456 -585 770 -780 216 -134 502 -246 737 -290 15
-3 41 -8 57 -11 145 -29 505 -39 660 -19 542 69 1020 313 1395 711 31 33 74
82 95 109 22 28 42 52 45 55 13 12 100 140 138 202 63 102 127 233 180 363 47
116 112 367 128 490 3 27 8 61 11 75 9 51 10 417 2 480 -27 197 -30 214 -49
295 -55 227 -147 452 -270 655 -190 315 -493 614 -802 790 -331 190 -735 302
-1090 304 -43 1 -78 2 -78 4 0 2 37 45 83 95 106 118 149 174 140 180 -10 6
-128 35 -173 42 -19 3 -51 10 -70 15 -19 4 -53 11 -75 14 -22 3 -71 10 -110
15 -114 16 -202 23 -343 25 -72 2 -133 2 -135 0z"/>
</g>
</svg>
